<?xml version="1.0" encoding="iso-8859-1"?>
<!-- Generator: Adobe Illustrator 19.0.0, SVG Export Plug-In . SVG Version: 6.00 Build 0)  -->
<svg version="1.1" id="Layer_1" xmlns="http://www.w3.org/2000/svg" xmlns:xlink="http://www.w3.org/1999/xlink" x="0px" y="0px"
	 viewBox="0 0 976.271 976.271" style="enable-background:new 0 0 976.271 976.271;" xml:space="preserve">
<g>
	<g>
		<path d="M525.609,429.483c-43.664,0-80.812-25.417-80.812-55.395c0-29.977,37.148-55.395,80.812-55.395
			c43.664,0,80.812,25.417,80.812,55.395h42.363c0-47.901-44.318-88.309-101.995-96.129v-39.431h-42.359v39.431
			c-57.677,8.147-101.995,48.228-101.995,96.129c0,53.767,55.395,97.758,123.174,97.758c43.664,0,80.812,25.417,80.812,55.395
			c0,29.979-37.148,55.395-80.812,55.395c-43.664,0-80.812-25.417-80.812-55.395h-42.362c0,47.901,44.318,88.309,101.995,96.129
			v39.43h42.362v-39.43c57.677-8.147,101.995-48.228,101.995-96.129C648.783,473.474,593.388,429.483,525.609,429.483z"/>
	</g>
</g>
<g>
	<g>
		<path d="M525.936,0C277.631,0,75.6,202.031,75.6,450.662c0,79.183,20.529,155.762,59.305,223.864L26.067,704.18l108.184,107.86
			L0,946.294l29.977,29.977l134.255-134.255l107.86,108.184l29.977-109.162c67.779,39.104,144.681,59.632,223.864,59.632
			c248.306,0,450.337-202.031,450.337-450.335S774.24,0,525.936,0z M250.586,868.738l-71.363-71.69l-71.689-71.359l196.819-53.44
			L250.586,868.738z M828.656,723.406l-42.363-42.363l-29.977,29.977l42.362,42.363c-67.452,60.61-155.434,99.385-251.887,104.274
			v-59.956h-42.363v59.959c-68.103-3.583-133.277-23.462-190.954-58.654l51.16-187.044l-187.367,51.16
			c-35.192-58.004-55.395-123.174-58.654-191.277h59.959v-42.363h-59.959c4.888-96.453,43.664-184.435,104.274-251.888
			l42.362,42.035l29.977-29.977l-42.363-42.039c67.452-60.937,155.107-99.712,251.564-104.601v60.283h42.363V43.013
			c96.453,4.888,184.435,43.664,251.888,104.6l-42.362,42.362l29.98,29.977l42.362-42.363
			c60.937,67.452,99.712,155.435,104.6,252.215h-60.286v42.363h60.283C928.37,568.298,889.594,656.281,828.656,723.406z"/>
	</g>
</g>
<g>
</g>
<g>
</g>
<g>
</g>
<g>
</g>
<g>
</g>
<g>
</g>
<g>
</g>
<g>
</g>
<g>
</g>
<g>
</g>
<g>
</g>
<g>
</g>
<g>
</g>
<g>
</g>
<g>
</g>
</svg>
