<?xml version="1.0" encoding="utf-8"?>
<!-- Generator: Adobe Illustrator 20.1.0, SVG Export Plug-In . SVG Version: 6.00 Build 0)  -->
<svg version="1.1" id="Capa_1" xmlns="http://www.w3.org/2000/svg" xmlns:xlink="http://www.w3.org/1999/xlink" x="0px" y="0px"
	 viewBox="0 0 55.9 55.9" style="enable-background:new 0 0 55.9 55.9;" xml:space="preserve">
<path d="M11.3,54.5c-0.2,0-0.4-0.1-0.6-0.2c-0.3-0.2-0.5-0.6-0.4-1l3.1-18L0.3,22.6c-0.3-0.3-0.4-0.7-0.3-1c0.1-0.4,0.4-0.6,0.8-0.7
	l18.1-2.6L27,1.9c0.2-0.3,0.5-0.6,0.9-0.6l0,0c0.4,0,0.7,0.2,0.9,0.6l8.1,16.4L55,20.9c0.4,0.1,0.7,0.3,0.8,0.7c0.1,0.4,0,0.8-0.3,1
	L42.5,35.4l3.1,18c0.1,0.4-0.1,0.8-0.4,1c-0.3,0.2-0.7,0.3-1.1,0.1l-16.2-8.5l-16.2,8.5C11.6,54.5,11.4,54.5,11.3,54.5z M3.1,22.6
	l12,11.7c0.2,0.2,0.3,0.6,0.3,0.9l-2.8,16.5l14.9-7.8c0.3-0.2,0.6-0.2,0.9,0l14.9,7.8l-2.8-16.5c-0.1-0.3,0.1-0.7,0.3-0.9l12-11.7
	l-16.6-2.4c-0.3,0-0.6-0.3-0.8-0.5l-7.4-15l-7.4,15c-0.1,0.3-0.4,0.5-0.8,0.5L3.1,22.6z"/>
<g>
	<path d="M32.3,24.1h-6.5l-0.7,4.4c0.4-0.1,0.8-0.1,1.4-0.1c1.3,0,2.6,0.3,3.7,0.9c1.3,0.8,2.4,2.2,2.4,4.4c0,3.3-2.6,5.8-6.3,5.8
		c-1.9,0-3.4-0.5-4.2-1l0.6-1.8c0.7,0.4,2.1,0.9,3.6,0.9c2.2,0,4-1.4,4-3.7c0-2.2-1.5-3.8-4.9-3.8c-1,0-1.7,0.1-2.4,0.2l1.1-8.2h8.1
		V24.1z"/>
</g>
</svg>
