<?xml version="1.0" encoding="utf-8"?>
<!-- Generator: Adobe Illustrator 17.1.0, SVG Export Plug-In . SVG Version: 6.00 Build 0)  -->
<!DOCTYPE svg PUBLIC "-//W3C//DTD SVG 1.1//EN" "http://www.w3.org/Graphics/SVG/1.1/DTD/svg11.dtd">
<svg version="1.1" id="Layer_1" xmlns="http://www.w3.org/2000/svg" xmlns:xlink="http://www.w3.org/1999/xlink" x="0px" y="0px"
	 viewBox="0 0 101 100" enable-background="new 0 0 101 100" xml:space="preserve">
<path fill="#ED2427" d="M45.3,80l0-2C57.6,77.9,67.6,68,68,55.7l2,0.1C69.6,69.1,58.7,79.9,45.3,80z M65,55.6l-2-0.1
	c-0.3,9.6-8.1,17.3-17.8,17.4l0,2C55.9,74.9,64.6,66.3,65,55.6z M44.7,27l0-2C28.6,25.2,15.5,38.1,15,54.1l2,0.1
	C17.5,39.2,29.7,27.2,44.7,27z M44.8,37l0-2C34.1,35.1,25.4,43.7,25,54.4l2,0.1C27.3,44.8,35.2,37.1,44.8,37z M44.8,32l0-2
	C31.3,30.1,20.4,40.9,20,54.2l2,0.1C22.4,42,32.4,32.1,44.8,32z M45.4,93l0,2C66.9,94.8,84.3,77.6,85,56.2l-2-0.1
	C82.3,76.5,65.8,92.8,45.4,93z M44.6,17l0-2C23.1,15.2,5.7,32.4,5,53.8l2,0.1C7.7,33.5,24.2,17.2,44.6,17z M44.7,22l0-2
	c-18.8,0.2-34,15.2-34.6,33.9l2,0.1C12.6,36.4,27,22.2,44.7,22z M75,55.9l-2-0.1c-0.5,14.9-12.7,27-27.7,27.1l0,2
	C61.4,84.8,74.5,71.9,75,55.9z M80,56.1L78,56C77.4,73.6,63,87.8,45.3,88l0,2C64.1,89.8,79.4,74.8,80,56.1z M45,70
	c-8.3,0-15-6.7-15-15c0-8.3,6.7-15,15-15s15,6.7,15,15C60,63.3,53.3,70,45,70z M48,55c0-1.7-1.3-3-3-3s-3,1.3-3,3s1.3,3,3,3
	S48,56.7,48,55z M94,15.9v6.5l-9.7,10.8C87.9,39.6,90,47.1,90,55c0,24.8-20.2,45-45,45S0,79.8,0,55s20.2-45,45-45
	c16.1,0,30.3,8.5,38.3,21.3l8.7-9.7v-5.7c-3.9-0.5-7-3.9-7-7.9c0-4.4,3.6-8,8-8s8,3.6,8,8C101,12.1,97.9,15.4,94,15.9z M82.9,34.7
	L80,37.9V49h-2V37.2l3.9-4.3C74.3,20.4,60.6,12,45,12C21.3,12,2,31.3,2,55s19.3,43,43,43s43-19.3,43-43C88,47.7,86.2,40.8,82.9,34.7
	z M99,8c0-3.3-2.7-6-6-6s-6,2.7-6,6c0,3,2.2,5.4,5,5.9v-3.1c-1.2-0.4-2-1.5-2-2.8c0-1.7,1.3-3,3-3s3,1.3,3,3c0,1.3-0.8,2.4-2,2.8
	v3.1C96.8,13.4,99,11,99,8z"/>
<g>
</g>
<g>
</g>
<g>
</g>
<g>
</g>
<g>
</g>
<g>
</g>
<g>
</g>
<g>
</g>
<g>
</g>
<g>
</g>
<g>
</g>
<g>
</g>
<g>
</g>
<g>
</g>
<g>
</g>
</svg>
