<?xml version="1.0" encoding="utf-8"?>
<!-- Generator: Adobe Illustrator 17.1.0, SVG Export Plug-In . SVG Version: 6.00 Build 0)  -->
<!DOCTYPE svg PUBLIC "-//W3C//DTD SVG 1.1//EN" "http://www.w3.org/Graphics/SVG/1.1/DTD/svg11.dtd">
<svg version="1.1" id="Layer_1" xmlns="http://www.w3.org/2000/svg" xmlns:xlink="http://www.w3.org/1999/xlink" x="0px" y="0px"
	 viewBox="0 0 94.2 93.1" enable-background="new 0 0 94.2 93.1" xml:space="preserve">
<path fill="#ED2427" d="M69.5,7c-0.7,0-1.4,0.3-1.9,0.8C63.8,4,56.9,4.2,49.9,7.6C45.9,3.3,39.7,0,31.3,0c-8.2,0-12.5,2.7-13.6,3.5
	C5.2,3.8,1,18.4,1,22.3c0,7.9,0.6,12.9,0.9,14.8C0.9,38,0,39.6,0,42.6c0,3.1,1.4,8.9,6.4,9.3l0.7,1.3V57c0,1.5,0.4,3,1.1,4.3
	c0.2,0.4,0.5,0.9,0.8,1.4v14.6L18.2,90l0.1,0.1c1.9,1.9,5.6,3,9.8,3c3.4,0,7.8-0.8,10-3l7.8-11.2l5.3,9.1l0.2,0.2
	c1.9,1.9,5.1,3,8.8,3s6.9-1.1,8.8-3l6.3-10.7l4.9,4.9C107.6,55,89.6,7,69.5,7z M78,52.5l0,1c0,1.9-0.2,3.4-0.5,4.3l0,0
	c0,0.1-0.1,0.2-0.1,0.3l-0.1,0.1c-1.3,2.1-2.5,3.7-3.3,4.9c-0.1,0.2-0.2,0.3-0.3,0.4l-0.2,0.2c-1.7,2.1-3.4,3.9-5.1,5.4
	c-2.1,1.8-5.2,3.9-8.3,3.9c-4.9,0-9.5-5-12.6-8.9c0-0.1,0-0.3,0-0.4c0-0.5,0.1-0.9,0.1-1.4c0-0.1,0-0.3,0-0.4
	c0.1-0.2,0.3-0.5,0.4-0.7c0.7-1.3,1.1-2.8,1.1-4.3v-3.8l0.6-1.2c5-0.4,6.5-5.8,6.6-8.7c0-2.1-0.4-3.5-0.9-4.5c2.1-3,4.4-5.5,6.6-7.9
	c3.7-4.1,6.7-7.4,7.2-11c5.9,1,8.1,12,8.1,22.3l0,1l2.4,0l0.2-0.1c0,0,0.7-0.4,1.5-0.4c1.4,0,2.1,1.4,2.1,4c0,0.2-0.2,5.9-4.6,6
	L78,52.5z M18,5.5l0.4,0l0.3-0.2c0,0,3.9-3.2,12.6-3.2C45.5,2,53,12.1,53,19.3c0,5.4-0.6,12.8-0.9,16.7l0,0.3
	c-0.8,0.1-1.5,0.4-2.1,0.7c-0.8-12.3-10.1-15-18.4-17.4c-4.7-1.4-9.2-2.6-12-5.5l-0.7-0.7l-0.8,0.8c-7.8,7.8-11.5,14.9-12,22.9
	c-0.7-0.3-1.4-0.6-2.2-0.6c0,0,0,0,0,0C3.6,34.6,3,29.7,3,22.3C3,18.8,6.8,5.5,18,5.5z M7.6,50H7c-4.9,0-5-7.1-5-7.4
	c0-1.6,0.2-2.6,0.6-3.2l1-0.8c0.1,0,0.2-0.1,0.3-0.1c0.7,0,1.9,0.7,2.5,1.2L8,41v-2c0-7.9,3.4-14.9,10.9-22.6
	c3.2,2.7,7.7,4.1,12.2,5.3c8.7,2.5,17,4.9,17,17.3l0,2.2l1.6-1.4c0.3-0.3,1.1-0.8,1.9-1.2c0.1,0,0.2,0,0.3,0c1.6,0,2.4,1.6,2.4,4.6
	c0,0.3-0.3,6.8-5.3,6.8h-0.6l-1.3,2.8V57c0,1.2-0.3,2.3-0.9,3.4C44,64.5,38,74,30.3,74H26c-7.7,0-13.7-9.5-16-13.6
	c-0.6-1-0.9-2.2-0.9-3.4v-4.3L7.6,50z M45,76.7l-8.3,12c-1.5,1.5-4.9,2.4-8.5,2.4c-3.6,0-6.8-0.9-8.3-2.4l-8.8-12V65.8
	C14.3,70.5,19.6,76,26,76h4.3c6.3,0,11.4-5.3,14.7-9.9V76.7z M73.5,76.5l-6.1,10.4c-1.5,1.4-4.2,2.3-7.3,2.3s-5.7-0.9-7.3-2.3
	L47,76.9V66.8c3.3,3.9,7.9,8.3,13.1,8.3c3.7,0,7.2-2.4,9.6-4.3c1.3-1,2.5-2.3,3.7-3.7v0V76.5z M64,51.6l0.3,0.9l-2.6,0.9
	c-0.3,0.1-0.7,0.2-1,0.2c-0.3,0-0.7-0.1-1-0.2l-2.5-0.9l0.3-0.9l0,0l0.3-0.9l2.5,0.9c0.1,0,0.2,0,0.2,0h0.2c0.1,0,0.2,0,0.2,0
	l2.6-0.9L64,51.6L64,51.6z M27.1,51.2l-2.7-1l0.3-0.9l0,0l0.3-0.9l2.6,0.9l0.1,0c0.3,0.1,0.5,0.1,0.8,0l0.1,0l2.7-0.9l0.3,0.9l0,0
	l0.3,0.9l-2.8,1c-0.3,0.1-0.7,0.2-1.1,0.2C27.9,51.4,27.5,51.4,27.1,51.2z M26.5,78.8c0.4,1.9,1,4,1.5,5.9l-1.9,0.6
	c-0.6-2-1.1-4.1-1.6-6.1L26.5,78.8z"/>
<g>
</g>
<g>
</g>
<g>
</g>
<g>
</g>
<g>
</g>
<g>
</g>
<g>
</g>
<g>
</g>
<g>
</g>
<g>
</g>
<g>
</g>
<g>
</g>
<g>
</g>
<g>
</g>
<g>
</g>
</svg>
