<?xml version="1.0" encoding="utf-8"?>
<!-- Generator: Adobe Illustrator 17.1.0, SVG Export Plug-In . SVG Version: 6.00 Build 0)  -->
<!DOCTYPE svg PUBLIC "-//W3C//DTD SVG 1.1//EN" "http://www.w3.org/Graphics/SVG/1.1/DTD/svg11.dtd">
<svg version="1.1" id="Layer_1" xmlns="http://www.w3.org/2000/svg" xmlns:xlink="http://www.w3.org/1999/xlink" x="0px" y="0px"
	 viewBox="0 0 97.1 97.3" enable-background="new 0 0 97.1 97.3" xml:space="preserve">
<path fill="#ED2427" d="M91.4,18.2l-0.2-2l-10,1.1l3.4-3.4l12.5-1.4l-0.2-2l-11.2,1.2l-0.4-0.4l1.2-11.2l-2-0.2l-1.4,12.5l-3.4,3.4
	l1.1-10l-2-0.2l-1.4,12.5l-10,10C60.3,21.5,50.6,17.3,40,17.3c-22.1,0-40,17.9-40,40s17.9,40,40,40s40-17.9,40-40
	c0-10.7-4.2-20.5-11.1-27.6l10-10L91.4,18.2z M78,57.3c0,21-17,38-38,38s-38-17-38-38s17-38,38-38c10.1,0,19.2,3.9,26,10.4l-8.9,8.9
	c-4.5-4.1-10.5-6.7-17.1-6.7c-14,0-25.4,11.4-25.4,25.4S26,82.7,40,82.7s25.4-11.4,25.4-25.4c0-6.7-2.6-12.8-6.8-17.3l8.9-8.9
	C74,37.9,78,47.1,78,57.3z M36.4,49.3L35,62.1l12.8-1.4l-5-5l14.3-14.3c3.9,4.2,6.3,9.8,6.3,15.9c0,12.9-10.5,23.4-23.4,23.4
	S16.6,70.2,16.6,57.3S27.1,33.9,40,33.9c6,0,11.5,2.3,15.7,6.1L41.4,54.3L36.4,49.3z"/>
<g>
</g>
<g>
</g>
<g>
</g>
<g>
</g>
<g>
</g>
<g>
</g>
<g>
</g>
<g>
</g>
<g>
</g>
<g>
</g>
<g>
</g>
<g>
</g>
<g>
</g>
<g>
</g>
<g>
</g>
</svg>
