<?xml version="1.0" encoding="utf-8"?>
<!-- Generator: Adobe Illustrator 17.1.0, SVG Export Plug-In . SVG Version: 6.00 Build 0)  -->
<!DOCTYPE svg PUBLIC "-//W3C//DTD SVG 1.1//EN" "http://www.w3.org/Graphics/SVG/1.1/DTD/svg11.dtd">
<svg version="1.1" id="Layer_1" xmlns="http://www.w3.org/2000/svg" xmlns:xlink="http://www.w3.org/1999/xlink" x="0px" y="0px"
	 viewBox="0 0 76.8 113.2" enable-background="new 0 0 76.8 113.2" xml:space="preserve">
<path fill="#ED2427" d="M58.2,82.1l-2.3-1.6c-0.3-1.5-1.6-2.5-3.1-2.5c-0.5,0-1.1,0.1-1.6,0.4L50.4,79c-5.9-7.4-5.1-15.7-2.8-23.7
	c6.8-1.5,12.7-3.9,17.3-7.1c7.7-5.2,11.9-12.4,11.9-20.3C76.8,14.4,64,0,40.3,0C16.1,0,0,14.9,0,24.7c0,2.6,1.1,4.6,3.1,6.1
	c2.1,1.5,5.2,2.2,9.2,2.2c0,0,0,0,0,0c9.7,0,17.3-2.6,23.3-4.6c6.5-2.2,10.7-3.5,13.5-0.7c4.3,4.3,1.8,11.3-1,19.5
	c-0.7,2-1.4,4.1-2.1,6.3c-5.6,1.2-11.9,1.7-18.7,1.7c-5.9,0-10.5,2.2-13.2,6.3c-2.1,3.2-2.9,7.3-2.5,11.9l-0.9,0.2
	c-1,0.2-1.9,0.9-2.3,1.8c-0.4,0.9-0.4,1.9,0.1,2.8l-0.7,2.7l4.5,25.5c0.5,2.8,2.9,4.8,5.7,4.8c0.3,0,0.7,0,1.1-0.1
	c1.5-0.3,2.8-1.1,3.7-2.4c0.9-1.3,1.2-2.8,1-4.3l-4.5-25.5l-1.6-2.2c0.1-0.9-0.1-1.8-0.7-2.5c-0.7-0.9-1.8-1.3-3-1.1l-0.4,0.1
	c-0.3-4.1,0.4-7.7,2.2-10.5c2.3-3.5,6.3-5.4,11.5-5.4c6.5,0,12.6-0.5,18-1.6c-2.2,8-2.8,16.6,3.2,24.3l-0.2,0.1
	c-0.9,0.5-1.5,1.5-1.6,2.5c-0.1,1,0.3,1.9,1.1,2.6l0.2,2.7l12.9,22.4c1,1.8,2.9,2.9,5,2.9c1,0,2-0.3,2.9-0.8l0.1-0.1
	c2.7-1.6,3.7-5.1,2.1-7.9L58.2,82.1z M50,47.9c2.9-8.4,5.7-16.4,0.5-21.6c-1.6-1.6-3.3-2.2-5.4-2.2c-2.8,0-6.2,1.1-10.1,2.4
	c-5.9,2-13.3,4.4-22.7,4.7c-3.5,0-6.2-0.7-8-1.9C2.8,28.2,2,26.7,2,24.8C2,16.7,16.5,2,40.3,2c22.4,0,34.6,13.3,34.6,25.8
	c0,7.2-3.9,13.8-11,18.7c-4.2,2.9-9.4,5-15.5,6.5C48.8,51.3,49.4,49.6,50,47.9z"/>
<g>
</g>
<g>
</g>
<g>
</g>
<g>
</g>
<g>
</g>
<g>
</g>
<g>
</g>
<g>
</g>
<g>
</g>
<g>
</g>
<g>
</g>
<g>
</g>
<g>
</g>
<g>
</g>
<g>
</g>
</svg>
