<?xml version="1.0" encoding="utf-8"?>
<!-- Generator: Adobe Illustrator 17.1.0, SVG Export Plug-In . SVG Version: 6.00 Build 0)  -->
<!DOCTYPE svg PUBLIC "-//W3C//DTD SVG 1.1//EN" "http://www.w3.org/Graphics/SVG/1.1/DTD/svg11.dtd">
<svg version="1.1" id="Layer_1" xmlns="http://www.w3.org/2000/svg" xmlns:xlink="http://www.w3.org/1999/xlink" x="0px" y="0px"
	 viewBox="0 0 86.4 95.9" enable-background="new 0 0 86.4 95.9" xml:space="preserve">
<path fill="#ED2427" d="M86.4,65.1C86.4,65.1,86.4,65.1,86.4,65.1l0-1.3l-0.1,0c-0.1-1-0.3-2-0.5-3l-4.7-17.5V7.6h-9.6l-2-7.6
	L41.4,7.6H9.2v8.6L0,18.6l9.2,34.2v34.7h9.3l2.2,8.4l31.2-8.4h29.3v-10c3.2-3,5.1-7.2,5.2-11.7l0,0L86.4,65.1z M79.2,9.6v26.4
	L72.1,9.6H79.2z M11.2,9.6h22.7l-22.7,6.1V9.6z M11.2,85.6V60.3l6.8,25.2H11.2z M79.2,85.6H59.3l14.5-3.9c1-0.3,1.9-0.6,2.8-1l0,0.1
	l1.1-0.6c0,0,0,0,0,0l0.7-0.4l0,0c0.2-0.2,0.5-0.3,0.7-0.5V85.6z M73.1,67.4l3,11.3c-0.9,0.5-1.9,0.8-2.8,1.1L22.1,93.5L2.4,20
	L68.1,2.4l15.8,58.9c0.3,1,0.4,2,0.5,3L73.1,67.4z M38.4,61.1l12.7-12.7l17.7-4.7l-0.5-1.9L54,45.6l10.1-10.1l3.4-3.4l0,0l0.9-0.9
	c2.2-2.2,2.2-5.7,0-7.9c0,0-0.1-0.1-0.1-0.1c-1.1-1-2.4-1.6-3.9-1.6c-1.5,0-2.9,0.6-3.9,1.6l-0.9,0.9l0,0l-0.6,0.6l-0.1,0.1
	c0,0,0,0,0,0l-2.6,2.7l-8.4,8.4l-29.7,8l0.5,1.9L45,38.7L32.3,51.4l-11.3,3l0.5,1.9l8-2.1l-4,4c0,0,0,0,0,0
	c-0.1,0.1-0.1,0.2-0.2,0.3l-3,6.8c0,0,0,0,0,0l-2.1,4.8c-0.2,0.4-0.1,0.8,0.2,1.1c0.2,0.2,0.4,0.3,0.7,0.3c0.1,0,0.3,0,0.4-0.1
	l4.8-2.1c0,0,0,0,0,0l6.8-3c0.1,0,0.2-0.1,0.3-0.2c0,0,0,0,0,0l2.2-2.2l36.1-9.7l-0.5-1.9L38.4,61.1z M59.6,26.9l5.1,5.1l-1.2,1.2
	l-5.1-5.1L59.6,26.9z M26.1,67.3l-1.7-1.7l2.1-4.9l4.4,4.4L26.1,67.3z M32.7,64l-2.6-2.6l-2.6-2.6L57,29.6l5.1,5.1L32.7,64z"/>
<g>
</g>
<g>
</g>
<g>
</g>
<g>
</g>
<g>
</g>
<g>
</g>
<g>
</g>
<g>
</g>
<g>
</g>
<g>
</g>
<g>
</g>
<g>
</g>
<g>
</g>
<g>
</g>
<g>
</g>
</svg>
