<?xml version="1.0" encoding="utf-8"?>
<!-- Generator: Adobe Illustrator 17.1.0, SVG Export Plug-In . SVG Version: 6.00 Build 0)  -->
<!DOCTYPE svg PUBLIC "-//W3C//DTD SVG 1.1//EN" "http://www.w3.org/Graphics/SVG/1.1/DTD/svg11.dtd">
<svg version="1.1" id="Layer_1" xmlns="http://www.w3.org/2000/svg" xmlns:xlink="http://www.w3.org/1999/xlink" x="0px" y="0px"
	 viewBox="0 0 120.2 73.7" enable-background="new 0 0 120.2 73.7" xml:space="preserve">
<path fill="#ED2427" d="M109.6,3L109.6,3L109.3,2l-0.3-1l-0.1,0L108.6,0l-0.9,0.3l-0.9,0.3l0.4,1.1L81.9,11
	c-4.2,0.1-14.4,0.1-19-0.9c-0.6-0.1-1.2-0.3-1.6-0.5c-2.2-1-5.2,1.2-8.8,3.7c-1.8,1.3-3.7,2.7-5.2,3.3c-5.6,0.5-11,2.3-12.5,2.8
	l-6.3-3.6l0,0l-8-4.6l-1.3-0.7l0.6-1L19,9l0,0l-0.9-0.5l-0.6,1l-0.1,0L17,10.4l-0.5,0.8l0.1,0L1.7,41.3L0,44.2l14.2,5.3l2.1-3.6
	l6.6,3.8c2.6,1.5,5,2.9,7.2,4.2c-0.6,2-0.7,3.9-0.2,5.2c0,0.1,0.1,0.2,0.1,0.3c0,0.1,0,0.2,0.1,0.2c0.7,1.9,2.5,3.1,4.5,3.1
	c0,0,0,0,0,0c0.1,0,0.3,0,0.4,0c0,0.1,0,0.3,0,0.4c0,0.1,0,0.3,0,0.4c0.1,0.4,0.1,0.7,0.3,1.1c0.5,1.5,1.6,2.6,3,3.3
	c0.3,0.2,0.7,0.3,1,0.4c0,0,0.1,0,0.1,0c0.3,0.1,0.6,0.1,1,0.1c0.1,0,0.1,0,0.2,0c0.1,0,0.1,0,0.2,0c0.3,0,0.6,0,0.9-0.1
	c0.1,0,0.1,0,0.2,0c0.3-0.1,0.6-0.1,0.8-0.2c0,0,0.1,0,0.1,0c0.1,0,0.2-0.1,0.4-0.1c0,0,0.1,0,0.1,0c0.2-0.1,0.4-0.2,0.6-0.3
	c0,0.1,0,0.1,0.1,0.2c0.1,0.4,0.3,0.7,0.5,1c0,0,0,0,0,0.1c0.2,0.3,0.4,0.6,0.6,0.8c0,0,0.1,0.1,0.1,0.1c0.2,0.2,0.5,0.5,0.8,0.7
	c0,0,0.1,0.1,0.1,0.1c0.3,0.2,0.6,0.4,0.9,0.5c0,0,0,0,0,0c0.1,0.1,0.3,0.1,0.4,0.2c0,0,0.1,0,0.1,0c0.1,0,0.2,0.1,0.4,0.1
	c0.1,0,0.1,0,0.2,0.1c0.1,0,0.2,0.1,0.4,0.1c0.1,0,0.2,0,0.2,0c0.1,0,0.2,0,0.3,0c0.1,0,0.2,0,0.3,0c0,0,0.1,0,0.1,0
	c0,0,0.1,0,0.1,0c0.2,0,0.5,0,0.7-0.1c0,0,0,0,0,0c0.3,0,0.5-0.1,0.8-0.2c0,0,0.1,0,0.1,0c0.1,0,0.2-0.1,0.3-0.1
	c0.1,0,0.2-0.1,0.3-0.1c0.1,0,0.2-0.1,0.2-0.1c0,0,0.1,0,0.1,0c0.5,1,1.3,1.8,2.3,2.3c0.6,0.3,1.3,0.4,2,0.4c0,0,0,0,0,0
	c0.7,0,1.3-0.1,2-0.4c0.1,0,0.1,0,0.2-0.1c1.4-0.5,2.7-1.1,3.9-1.7c2.7,1.2,4.5,1.7,5.8,1.7c1.5,0,2.3-0.6,3-1.8c0.6-1,1-2,1.1-2.8
	c1.4,0.8,3.2,1.6,5,1.4c1.6-0.2,2.9-1.2,3.8-2.8c0.7-1.3,0.9-2.4,0.8-3.4c0.4,0.1,0.9,0.1,1.3,0.1c1.6-0.2,3-1.2,4.1-3.1
	c1.4-2.4,1.7-4.4,1.4-6c0.5,0.1,1.1,0.1,1.6,0c2.1-0.3,3.9-1.7,5.3-4.1c1.4-2.4,0.1-5.1-3.7-8c1.5-1.3,3.1-2.3,4.9-2.9l7.2-2.6
	l1.4,3.9l14.8-2.8L109.6,3z M111.4,35.7c-0.8,0.3-1.7,0.1-1.9-0.5c-0.2-0.6,0.3-1.3,1.2-1.6c0.8-0.3,1.7-0.1,1.9,0.5
	C112.7,34.7,112.2,35.4,111.4,35.7z M47.8,18.6c1.8-0.6,3.9-2.2,5.9-3.7c2.4-1.7,5.6-4.1,6.7-3.6l0.4-0.9c0,0,0,0,0,0l2.8,1.7
	c4,0.6,10,0.8,14,0.8c2.4,0,4.2,0,4.4-0.1l0.2,0l15.3-5.6l3,14.4l-0.1-0.4l-13.2,4.8l0.3,0.9l0,0c0,0,0,0,0,0l-0.9-0.4
	c-2.1,4.6-5.7,6.3-10.7,5.3c-5.8-1.2-10.6-5.7-10.7-6.9c0.2-0.5,0.2-1.1-0.1-1.6c-1-1.8-5.6-2.5-7-2.6l-0.2,0l-7.2,2.6l0.3,0.9
	c0.9,2.6-0.6,4.9-2,6.5c-3.1,3.3-7.5,4.8-8.2,4.5C40,35,39.5,34.5,39.5,34c0-0.5,0.2-1,0.4-1.4c1.6-3.5,2.7-6.1,3.4-8
	C45,20.4,45.4,19.5,47.8,18.6z M11.2,43c-0.3,0.5-1.2,0.6-1.9,0.1c-0.8-0.4-1.2-1.2-0.9-1.7c0.3-0.5,1.2-0.6,1.9-0.1
	S11.5,42.5,11.2,43z M34.5,60.7L34.5,60.7c-1.2,0-2.2-0.7-2.6-1.8c-0.3-0.7-0.2-1.4,0.1-2.1s0.9-1.2,1.6-1.4c1.2,0,3.5,0.8,3.9,1.4
	c-0.2,0.3-0.4,0.5-0.5,0.8c-0.6,0.9-1.3,1.9-1.5,2.5c-0.1,0.2-0.1,0.3-0.2,0.5C35,60.7,34.8,60.7,34.5,60.7z M45.2,61.2
	c-0.4,0.8-0.9,1.7-1.1,2.1c-0.3,0.6-0.4,1.3-0.5,1.9c-0.7,0.8-1.7,1.2-2.8,1.2c-0.6,0-1.1-0.1-1.6-0.4c-0.2-0.1-0.5-0.2-0.7-0.4
	c-0.6-0.4-1.1-1.1-1.3-1.8c-0.4-1-0.3-2,0.1-2.9c0.2-0.5,0.9-1.5,1.4-2.3c0.6-0.8,0.9-1.3,1-1.6c0.5-1.2,1.7-1.9,3-1.9
	c0.5,0,1,0.1,1.4,0.3c1.7,0.8,2.4,2.7,1.6,4.4c-0.1,0.2-0.2,0.5-0.3,0.9C45.3,60.9,45.3,61,45.2,61.2z M52.4,65.7
	c-0.2,0.5-0.4,1-0.4,1.2c-0.3,0.6-0.4,1.3-0.4,2c-0.6,0.4-1.4,0.7-2.2,0.7c-0.6,0-1.1-0.1-1.6-0.4c-0.9-0.4-1.6-1.2-2-2.2
	c-0.4-1-0.3-2,0.1-2.9c0.2-0.4,0.6-1.2,1-2c0.4-0.7,0.7-1.4,0.9-1.7c0.5-1.2,1.7-1.9,3-1.9c0.5,0,1,0.1,1.4,0.3
	c0.8,0.4,1.4,1,1.7,1.9c0.3,0.7,0.3,1.5,0,2.2c-0.4,0.3-0.7,0.7-0.9,1.2C52.9,64.4,52.7,65.1,52.4,65.7z M55.1,71.5
	c-0.7-0.3-1.2-0.9-1.4-1.6c-0.3-0.7-0.2-1.4,0.1-2.1c0.1-0.2,0.3-0.8,0.5-1.3c0.2-0.6,0.5-1.2,0.6-1.5c0.4-0.8,1.2-1.3,2-1.3
	c0.3,0,0.6,0.1,0.9,0.2c1.9,0.9,1.4,5.4,1,6.3C58.2,71.5,56.5,72.1,55.1,71.5z M70.6,66.2L70.6,66.2L70.6,66.2L70.6,66.2z
	 M93.9,49.7c-1.1,1.9-2.4,2.9-3.9,3.2c-0.9,0.1-1.7,0-2.5-0.3c-0.4-0.5-1-1-1.5-1.4c-0.4-0.2-1.1-0.7-1.8-0.7l-5.8-3.3l-3.3-1.9
	c-1.9-1.1-2.3-2-2.3-2.5c0-0.1,0-0.2,0-0.2l-0.9-0.5l0,0l0,0l-0.9-0.5c-0.1,0.1-1.5,2.8,3,5.4l9.2,5.3c0.3,0.3,1.4,1.2,2.8,1.8
	c0.1,0.1,0.1,0.2,0.2,0.3c0.7,1.4,0.4,3.2-0.9,5.4c-0.8,1.3-1.6,2-2.6,2.1c-0.8,0.1-1.7-0.3-2.4-0.8c-0.7-0.7-1.3-1.1-1.4-1.2
	l-13.1-7.5l-0.5,0.9l-0.5,0.9l12.9,7.5c0.2,0.2,0.6,0.6,1.2,1.1c0.6,0.8,1,2,0.1,3.5c-0.6,1.1-1.4,1.7-2.4,1.8
	c-1.9,0.3-4.3-1.4-5.4-2.3c-0.2-0.3-0.4-0.4-0.5-0.4l-7.8-4.5L60,61.7l0.5,1.9l1.4-0.4l1.1-0.3l2.8,1.6L70,67c0,0,0.1,0.1,0.2,0.2
	c0.3,0.4,0.4,1.4-0.7,3.3c-0.7,1.3-3.1,0.8-8.3-1.7c0.3-2.3,0-5.7-2.4-6.8c-0.6-0.3-1.2-0.4-1.8-0.4c-0.3,0-0.5,0-0.8,0.1
	c0-0.6-0.1-1.2-0.3-1.8c-0.5-1.3-1.5-2.4-2.7-3c-0.7-0.3-1.5-0.5-2.2-0.5c-1.1,0-2.1,0.3-2.9,0.9c-0.3-1.6-1.4-3-2.9-3.7
	c-0.7-0.3-1.5-0.5-2.2-0.5c-1.6,0-3.1,0.7-4.1,1.9c-1.4-1.1-4-1.7-5-1.7c-0.1,0-0.3,0-0.4,0c-2.9-1.7-6-3.5-9.3-5.4l-6.7-3.9
	l10.6-26.4l6.9,4l0.4-0.2c0.1,0,3.9-1.4,8.6-2.3c-0.8,1.1-1.4,2.6-2.2,4.8c-0.8,1.9-1.8,4.5-3.4,7.9c-0.2,0.5-0.7,1.4-0.5,2.4
	c0.1,1.3,1,2.3,2.5,3c0.3,0.1,0.6,0.2,1,0.2c2.3,0,6.2-2.1,8.7-4.4c2.9-2.6,4.1-5.6,3.5-8.4l5-1.8c1.2,0.1,2.3,0.4,3.2,0.7
	c0.8,0.8,1.5,1.6,1.9,2c0.1,0.4,0.3,0.9,0.7,1.4c1.5,2.2,5.8,5.5,10.6,6.8c4.4,3.1,9.2,6.4,12.5,8.2C92.6,45.1,95,47.9,93.9,49.7z
	 M101.6,35.9l-5.5,2c-2.2,0.8-4.1,2-5.9,3.6c-0.7-0.4-1.4-0.9-2.1-1.3c-1.8-1-4.1-2.5-6.6-4.2c-0.9-0.6-1.7-1.2-2.6-1.8
	c0.2,0,0.5,0,0.7,0c3.8-0.3,6.8-2.5,8.7-6.3l12.6-4.6l0.3,1.2l-12.8,4.7l0.7,1.9l12.5-4.6l1.8,8.7L101.6,35.9z"/>
<g>
</g>
<g>
</g>
<g>
</g>
<g>
</g>
<g>
</g>
<g>
</g>
<g>
</g>
<g>
</g>
<g>
</g>
<g>
</g>
<g>
</g>
<g>
</g>
<g>
</g>
<g>
</g>
<g>
</g>
</svg>
