<?xml version="1.0" encoding="utf-8"?>
<!-- Generator: Adobe Illustrator 17.1.0, SVG Export Plug-In . SVG Version: 6.00 Build 0)  -->
<!DOCTYPE svg PUBLIC "-//W3C//DTD SVG 1.1//EN" "http://www.w3.org/Graphics/SVG/1.1/DTD/svg11.dtd">
<svg version="1.1" id="Layer_1" xmlns="http://www.w3.org/2000/svg" xmlns:xlink="http://www.w3.org/1999/xlink" x="0px" y="0px"
	 viewBox="0 0 91 103.9" enable-background="new 0 0 91 103.9" xml:space="preserve">
<path fill="#ED2427" d="M68.6,65.3c1.3,0.1,2.6-0.1,3.8-0.7c2.3-1.1,3.9-3.4,4.2-5.8c0.1-1.2,0-2.3-0.5-3.4c-0.8-2.1-1-4.3-0.6-6.3
	c0.2-0.9,0.5-1.8,1-2.6c2.5-4.5,3.8-9.3,3.8-14.3C80.3,14.4,63.9,0,43.8,0C33.3,0,23.4,4,16.6,10.7c-1.2-0.2-2.4,0.1-3.3,0.9
	c-1,1-1.3,2.6-0.8,3.9c0,0.1-0.1,0.1-0.1,0.2c-1.3,2-2.4,4.1-3.2,6.3L9,22v0.3c-1.1,3.1-1.8,6.5-1.8,9.8c0,2.5,0.3,4.9,0.9,7.3
	c0.6,2.4,1.6,4.8,2.9,7c1.5,2.6,1.6,5.9,0.4,9c-0.4,1.1-0.6,2.2-0.5,3.4c0.3,2.5,1.8,4.7,4.2,5.8c1.2,0.6,2.5,0.8,3.8,0.7l2,18.6
	c0.5,4.8,3.8,8.8,8.4,10.3l10.8,3.4c1.2,0.4,2.4,0.6,3.6,0.6s2.5-0.2,3.6-0.6l10.8-3.4c4.6-1.5,7.9-5.5,8.4-10.3L68.6,65.3z
	 M67.5,65l0.3-0.3l0.4-0.4L67.5,65z M43.8,2c19,0,34.5,13.5,34.5,30.1c0,1.8-0.2,3.6-0.6,5.4c-7.4-4.5-21.8-7.6-29.2-8.9
	c9.2-1.9,16.3-3.2,16.5-3.3l-0.4-2c-1.5,0.3-29,5.2-45.6,10.5l-0.7-3.6l1.4-4c0.4,0.1,0.8,0.1,1.2,0.1c1.9,0,3.6-0.7,5-2.1
	c1.3-1.3,2.1-3.1,2.1-5c0-0.3,0-0.6-0.1-1l3.6-1.3l5.4,1.1l0.4-2l-6-1.2l-4,1.4c-0.1-0.3-0.3-0.6-0.5-0.9l3.1-3.1l4.7,0.2l0.1-2
	l-5.6-0.2L25.6,14c-0.6-0.5-1.3-1-2.1-1.3l1.1-1.8H28V9h-4.5l-2.1,3.3c-0.1,0-0.3,0-0.4,0c-0.7,0-1.3,0.1-2,0.3
	c-0.2-0.3-0.4-0.6-0.6-0.9C24.9,5.6,34.1,2,43.8,2z M9.2,32.1c0-1.7,0.2-3.4,0.5-5.1H11v-3.6l3.6-1.2c0.3,0.6,0.6,1.2,1.1,1.7
	l-3.9,3.9l0,5.7l2,0l0-4.9l3.4-3.4c0.2,0.1,0.5,0.3,0.7,0.4l-1.6,4.4l0.9,4.4c-3,1-5.6,2.1-7.4,3.1C9.4,35.7,9.2,33.9,9.2,32.1z
	 M21,14.3c0.5,0,0.9,0.1,1.4,0.2l0.1,0l0,0c0.8,0.2,1.5,0.6,2.1,1.2c0.9,0.9,1.5,2.2,1.5,3.5s-0.5,2.6-1.5,3.5
	c-0.9,0.9-2.2,1.5-3.5,1.5s-2.6-0.5-3.5-1.5c-0.9-0.9-1.5-2.2-1.5-3.5s0.5-2.6,1.5-3.5S19.6,14.3,21,14.3z M14.7,13.1
	c0.3-0.3,0.7-0.5,1.1-0.5c0.4,0,0.8,0.2,1.1,0.5c0.1,0.1,0.2,0.2,0.3,0.4c-0.4,0.3-0.8,0.6-1.2,0.9c-0.4,0.4-0.7,0.7-0.9,1.2
	c-0.1-0.1-0.3-0.1-0.4-0.2C14.1,14.7,14.1,13.7,14.7,13.1z M13.8,17.1c0.1,0.1,0.3,0.2,0.4,0.2c-0.2,0.6-0.3,1.3-0.3,2
	c0,0.3,0,0.6,0.1,1l-2.4,0.8C12.3,19.7,13,18.4,13.8,17.1z M16,62.8c-1.7-0.8-2.9-2.4-3.1-4.2c-0.1-0.9,0-1.7,0.3-2.5
	c1.4-3.7,1.3-7.6-0.5-10.7c-1.1-1.9-1.9-3.8-2.5-5.8c3.6-2.2,11.3-4.5,19.8-6.7c5,3.3,10.5,6.2,16.4,8.8c0.3-0.6,0.6-1.2,1-1.7
	c-5.3-2.3-10.2-4.9-14.8-7.7c3.6-0.9,7.3-1.7,10.9-2.5l0,0.1c0.2,0,24.2,3.8,33.6,9.8c-0.6,2-1.4,4-2.5,5.9c-0.4,0.7-0.7,1.5-1,2.3
	c-1.1-0.2-2.2-0.4-3.3-0.6c-0.1,0.7-0.2,1.3-0.4,2c1.1,0.2,2.2,0.4,3.3,0.6c-0.3,2.1,0,4.3,0.9,6.5c0.3,0.8,0.4,1.6,0.3,2.5
	c-0.2,1.8-1.4,3.4-3,4.2c-1,0.5-2,0.6-3.1,0.4c-0.7-0.5-1.5-0.8-2.4-0.8c-3.9,0-8.3,4.6-9.6,9.9c-0.3,0.2-1.4,0.8-5.4,1.7
	c-4.8,1.1-9.8,1.1-14.6,0c-4-1-5.1-1.6-5.4-1.7c-1.2-5.8-5-10.3-8.8-10.3c-1.1,0-2.2,0.4-3.2,1.2C18.1,63.4,17,63.3,16,62.8z M64,65
	c-2.8,3.8-5.1,11.3-5.7,14c-0.4,0.2-2,1-8.6,2.2c-3.9,0.7-8,0.7-11.9,0c-6.6-1.2-8.2-2-8.6-2.2c-0.5-2.4-2.3-10.7-5.2-14.4
	c2.3,1.2,4.5,4.6,5.2,8.4c0.2,0.8,0.8,1.7,6.8,3.1c5.1,1.2,10.4,1.2,15.5,0c6-1.4,6.7-2.2,6.9-3C59.2,69.3,61.7,66.2,64,65z
	 M64.7,83.6c-0.4,4-3.2,7.4-7,8.6l-10.8,3.4c-2,0.6-4.1,0.6-6.1,0l-10.8-3.4c-3.8-1.2-6.6-4.6-7-8.6l-2-19.1c0,0,0,0,0,0
	c1.9,0,4.8,6.9,6.4,15c0.2,0.8,0.3,1.8,10.1,3.6c2.1,0.4,4.3,0.6,6.4,0.6c2.1,0,4.2-0.2,6.3-0.6c9.7-1.8,10-2.8,10.1-3.5
	c1.4-6.2,4.5-13.1,6.4-14.5L64.7,83.6z M20.8,50.6c0.7,1.1,1.6,2.1,2.7,2.9c1.5,1.1,3.3,1.8,5.2,2.1c0.2,0,0.5,0.1,0.7,0.1
	c0.9,0,1.9-0.2,2.8-0.7c1.5-0.8,3.7-2.2,5.4-3.9c0.3-0.3,0.6-0.7,1-1c0.3-0.4,0.6-0.8,0.8-1.1c0.6-1,0.9-2.1,0.9-3.1
	c0-5.1-3.3-7.7-9.9-7.7c-7.1,0-11,2.7-11,7.7c0,1.2,0.2,2.4,0.7,3.5C20.3,49.7,20.5,50.1,20.8,50.6z M30.5,40.2c7,0,7.9,3,7.9,5.7
	c0,0.7-0.2,1.3-0.7,2.1c-0.2,0.3-0.4,0.6-0.6,0.9c-0.2,0.3-0.5,0.6-0.8,0.9c-1.5,1.5-3.6,2.8-5,3.5c-0.7,0.4-1.5,0.5-2.3,0.4
	c-1.6-0.2-3.1-0.8-4.3-1.7c-0.9-0.6-1.6-1.4-2.2-2.3c-0.2-0.4-0.4-0.7-0.5-1c-0.4-0.9-0.6-1.8-0.6-2.7
	C21.5,41.2,26.3,40.2,30.5,40.2z M39.1,65.2c0.4,0.6,1,1,1.7,1h0c1.2,0,2.5-1,3.3-1.8c0.8,0.8,2.1,1.8,3.3,1.8
	c0.8,0,2.2-0.4,2.2-3.2c0-5.3-2.1-11-5.4-11s-5.4,5.7-5.4,11C38.6,64,38.8,64.7,39.1,65.2z M44.1,54c1.5,0,3.4,4.2,3.4,9
	c0,0.9-0.2,1.2-0.2,1.2c-0.5,0-1.7-1-2.5-1.9l-0.7-0.8l-0.7,0.8c-0.8,0.9-2,1.9-2.5,1.9c0,0-0.2-0.2-0.2-1.3
	C40.6,58.2,42.5,54,44.1,54z M47.7,45.8c0-5.1,3.3-7.7,9.9-7.7c9.6,0,11,4.8,11,7.7c0,4.9-3.9,9-9.3,9.8c-0.2,0-0.5,0.1-0.7,0.1h0
	c-0.9,0-1.9-0.2-2.8-0.7C52.7,53.3,47.7,50,47.7,45.8z M89.8,82.9c-0.1-0.1-0.1-0.1-0.2-0.1c0,0-0.1-0.1-0.1-0.1
	c-1.4-1-3.6-1.6-6.3-1.6c0,0-0.1,0-0.1,0c0,0-0.1,0-0.1,0c-3.9,0-8,1.5-8,4.2v3c0,2.7,4.1,4.2,8,4.2s8-1.5,8-4.2v-3
	C91,84.3,90.5,83.6,89.8,82.9z M83.2,83.1c3.5,0,5.8,1.3,5.8,2.2s-2.3,2.2-5.8,2.2c-3.5,0-5.8-1.3-5.8-2.2S79.6,83.1,83.2,83.1z
	 M7.2,67C7.1,67,7.1,67,7.2,67C7.1,67,7,67,7,67c-3.4,0-7,1.2-7,3.6V73c0,2.3,3.6,3.6,7,3.6s7-1.2,7-3.6v-2.4c0-0.4-0.1-0.7-0.3-1
	C12.9,67.9,10,67,7.2,67z M7.2,69c3.1,0,4.8,1.1,4.8,1.6s-1.7,1.6-4.8,1.6S2.3,71,2.3,70.6S4,69,7.2,69z M73,92.5
	C73,92.5,73,92.5,73,92.5C72.9,92.5,72.9,92.5,73,92.5c-2.3,0-4.5,0.4-6.1,1.1c-1.7,0.7-2.9,1.8-2.9,3.1v3c0,2.7,4.6,4.2,9,4.2
	s9-1.5,9-4.2v-3C82,94,77.4,92.5,73,92.5z M72.9,94.5c4.2,0,6.8,1.4,6.8,2.2s-2.6,2.2-6.8,2.2c-4.2,0-6.8-1.4-6.8-2.2
	S68.7,94.5,72.9,94.5z"/>
<g>
</g>
<g>
</g>
<g>
</g>
<g>
</g>
<g>
</g>
<g>
</g>
<g>
</g>
<g>
</g>
<g>
</g>
<g>
</g>
<g>
</g>
<g>
</g>
<g>
</g>
<g>
</g>
<g>
</g>
</svg>
