<?xml version="1.0" encoding="utf-8"?>
<!-- Generator: Adobe Illustrator 17.1.0, SVG Export Plug-In . SVG Version: 6.00 Build 0)  -->
<!DOCTYPE svg PUBLIC "-//W3C//DTD SVG 1.1//EN" "http://www.w3.org/Graphics/SVG/1.1/DTD/svg11.dtd">
<svg version="1.1" id="Layer_1" xmlns="http://www.w3.org/2000/svg" xmlns:xlink="http://www.w3.org/1999/xlink" x="0px" y="0px"
	 viewBox="0 0 72 126.8" enable-background="new 0 0 72 126.8" xml:space="preserve">
<path fill="#ED2427" d="M71,32.1c-7.7,0-14-1.5-19-3.5c0-0.2,0-0.3,0-0.5c0-3.5-2.5-6-6-6h-5.2c-0.3-0.2-0.6-0.5-0.8-0.7V7.9
	c1.7-0.4,3-2,3-3.9c0-2.2-1.8-4-4-4H33c-2.2,0-4,1.8-4,4c0,1.9,1.3,3.4,3,3.8v13.6c-0.3,0.2-0.5,0.5-0.8,0.7H26c-3.5,0-6,2.5-6,6
	c0,0.2,0,0.3,0,0.5c-5,2-11.3,3.5-19,3.5H0v45.7c0,16.7,22.8,28.6,32,32.7c0.8,4.1,1.8,8.3,3.1,12.8l1,3.4l1-3.4
	c1.3-4.5,2.3-8.8,3.1-12.8c9.1-4.1,32-16,32-32.7V32.1H71z M31,4c0-1.1,0.9-2,2-2H39c1.1,0,2,0.9,2,2c0,1.1-0.9,2-2,2H33
	C31.9,6,31,5.1,31,4z M26,24.1h6h8h6c2.4,0,4,1.6,4,4s-1.6,4-4,4s-4-1.6-4-4v-1H30v1c0,2.4-1.6,4-4,4c-2.4,0-4-1.6-4-4
	C22,25.7,23.5,24.1,26,24.1z M2,77.9V34c7.4-0.1,13.5-1.5,18.4-3.5c0.9,2.2,2.9,3.6,5.6,3.6c1.6,0,3-0.5,4-1.4v17.4h-9
	c-1.7,0-3-2.7-3-1v12c0,1.7,1.3-1,3-1h9v9.5h-9c-1.7,0-3-2.7-3-1v12c0,1.7,1.3-1,3-1h9V91c0,5.5,0.5,11.1,1.5,17.1
	C22.1,103.7,2,92.5,2,77.9z M40,91c0,8.8-1.3,17.8-4,28.3c-2.7-10.5-4-19.5-4-28.3V29.1h8V91z M70,77.9c0,14.6-20.1,25.8-29.5,30.3
	c1-6,1.5-11.6,1.5-17.1V79.6h9c1.7,0,3,2.7,3,1v-12c0-1.7-1.3,1-3,1h-9v-9.5h9c1.7,0,3,2.7,3,1v-12c0-1.7-1.3,1-3,1h-9V32.7
	c1,0.9,2.4,1.4,4,1.4c2.6,0,4.7-1.4,5.6-3.6c4.9,1.9,11.1,3.3,18.4,3.5V77.9z M35,92.8c0-9.2,0-21.4,0-33.7c0-9.1,0-18.2,0-26h2
	c0,7.8,0,16.9,0,26c0,12.3,0,24.5,0,33.7c0,1.1,0.1,2.2,0,3.3c-0.1,1-0.2,2-0.2,3c-0.1,1.9-0.3,3.5-0.4,4.8
	c-0.2,2.7-0.4,4.2-0.4,4.2s-0.2-1.5-0.4-4.2c-0.1-1.3-0.2-3-0.4-4.8c-0.1-0.9-0.2-1.9-0.2-3C34.9,95.1,35,94,35,92.8z"/>
<g>
</g>
<g>
</g>
<g>
</g>
<g>
</g>
<g>
</g>
<g>
</g>
<g>
</g>
<g>
</g>
<g>
</g>
<g>
</g>
<g>
</g>
<g>
</g>
<g>
</g>
<g>
</g>
<g>
</g>
</svg>
